<svg width="81" height="20" viewBox="0 0 81 20" xmlns="http://www.w3.org/2000/svg">
  <g fill="none" fill-rule="evenodd">
    <path d="M9.6 1.6H2.8c-.7 0-1.2.5-1.2 1.2v14.4c0 .7.5 1.2 1.2 1.2h26.4c.7 0 1.2-.5 1.2-1.2V2.8c0-.7-.5-1.2-1.2-1.2h-6.8V0H9.6v1.6zM2.6 0h26.8C30.8 0 32 1.2 32 2.6v14.8c0 1.4-1.2 2.6-2.6 2.6H2.6C1.2 20 0 18.8 0 17.4V2.6C0 1.2 1.2 0 2.6 0zm8 12.3v.6c0 .5 3.5.5 3.5 2.2v1.2H3.8v-1.2c0-1.7 3.5-1.7 3.5-2.3v-.7c-.7-.5-1-1.4-1-2.3V7.7c0-1.6 1-3 2.7-3 1.5 0 2.8 1.4 2.8 3V10c0 1-.4 1.8-1 2.3zm7-4c-.5 0-1-.5-1-1s.5-1 1-1H27c.5 0 1 .5 1 1s-.5 1-1 1h-9.4zm0 4c-.5 0-1-.5-1-1s.5-1 1-1h6.6c.5 0 1 .5 1 1s-.5 1-1 1h-6.6zM12 2.2c-.4 0-.8-.3-.8-.7V0h9.6c.5 0 0 1.6 0 1.6 0 .4-.4.6-1 .6h-7.7z" fill="#FFF"/>
    <path d="M64 0h6.5v2.3c0 .7-.6 1.2-1.2 1.2H58.8c-.6 0-1.2-.5-1.2-1.2V0h11.2c.5 0 0 0 0 0v1.6c0 .4-.4.6-.8.6h-8c-.4 0-.8-.2-.8-.6V0h18.3C79 0 80 1.2 80 2.6v14.8c0 1.4-1 2.6-2.5 2.6h-27c-1.3 0-2.5-1.2-2.5-2.6V2.6C48 1.2 49.2 0 50.6 0H64zm-5.3 12.3c.7-.5 1.2-1.4 1.2-2.3V7.7c0-1.6-1.4-3-3-3s-3 1.4-3 3V10c0 1 .5 1.8 1.2 2.3v.6c0 .5-3.4.5-3.4 2.2v1.2h10.4v-1.2c0-1.7-3.5-1.7-3.5-2.3v-.7zm7-4H75c.6 0 1-.5 1-1s-.4-1-1-1h-9.4c-.5 0-1 .5-1 1s.5 1 1 1zm0 4H72c.5 0 1-.5 1-1s-.5-1-1-1h-6.6c-.5 0-1 .5-1 1s.5 1 1 1z" fill="#000"/>
  </g>
</svg>
