<svg width="80" height="20" viewBox="0 0 80 20" xmlns="http://www.w3.org/2000/svg" xmlns:xlink="http://www.w3.org/1999/xlink">
  <defs>
    <path d="M50.4 0h27.2C79 0 80 1 80 2.4v15.2c0 1.3-1 2.4-2.4 2.4H50.4C49 20 48 19 48 17.6V2.4C48 1 49 0 50.4 0zm.6 2c-.6 0-1.2.5-1.2 1v14c0 .5.6 1 1.2 1h.8V2H51zm4.3-.3v6.7L57 6.6 59 8.4V1.7h-3.5zM62 5.4h13.3c.5 0 1-.4 1-.8 0-.5-.5-.8-1-.8H62c-.5 0-1 .3-1 .8 0 .4.5.8 1 .8zM62 9h10.7c.4 0 .8-.4.8-1 0-.3-.4-.7-.8-.7H62c-.5 0-1 .4-1 .8 0 .6.5 1 1 1zm0 7h7.4c.4 0 .8-.4.8-.8s-.4-.8-.8-.8H62c-.5 0-1 .4-1 .8s.5.8 1 .8zm10 0h.6c.4 0 .8-.4.8-.8s-.4-.8-.8-.8H72c-.4 0-.7.4-.7.8s.3.8.8.8zm-10-3.5h12.3c.5 0 1-.4 1-.8 0-.5-.5-.8-1-.8H62c-.5 0-1 .2-1 .7 0 .4.5.8 1 .8z" id="a"/>
  </defs>
  <g fill="none" fill-rule="evenodd">
    <path d="M5.5 1.7v16.7H29c.8 0 1.3-.5 1.3-1.2V3c0-.8-.5-1.3-1.2-1.3H11v6.7L9 6.6 7.4 8.4V1.7H5.5zM4 1.7H3c-.8 0-1.3.5-1.3 1.2V17c0 .7.5 1.2 1.2 1.2h1V1.7zM2.3 0h27.2C31 0 32 1 32 2.4v15.2c0 1.3-1 2.4-2.4 2.4H2.4C1 20 0 19 0 17.6V2.4C0 1 1 0 2.4 0zM14 5.4c-.5 0-.8-.4-.8-.8 0-.5.3-.8.8-.8h13.4c.5 0 .8.3.8.8 0 .4-.3.8-.8.8H14zM14 9c-.5 0-.8-.4-.8-1 0-.3.3-.7.8-.7h10.8c.4 0 .8.4.8.8 0 .6-.4 1-.8 1H14zm0 7c-.5 0-.8-.4-.8-.8s.3-.8.8-.8h7.4c.5 0 1 .4 1 .8s-.5.8-1 .8H14zm10.2 0c-.5 0-1-.4-1-.8s.5-.8 1-.8h.4c.5 0 1 .4 1 .8s-.5.8-1 .8h-.4zM14 12.5c-.5 0-.8-.4-.8-.8 0-.5.3-.8.8-.8h12.4c.5 0 .8.2.8.7 0 .4-.3.8-.8.8H14z" fill="#FFF"/>
    <use fill="#000" xlink:href="#a"/>
  </g>
</svg>
