<svg width="80" height="20" viewBox="0 0 80 20" xmlns="http://www.w3.org/2000/svg">
  <g fill="none" fill-rule="evenodd">
    <path d="M2.5 18.5c-.2 0-.5-.2-.5-.5v-5.4c.8.4 1.6.6 3 .6h9V12v-.3H5c-1.6 0-2-.2-2.8-1l-.6-.6V5.2c0-.3.2-.6.5-.6h28c.2 0 .5.3.5.6V10s0 .2-.2.2l-.3.4c0 .2-.2.2-.3.3-.6.4-1.3.7-2.3.7H18v1.5h9.4c1 0 2-.3 2.6-.6V18c0 .3-.3.5-.5.5h-27zm7.7-15.3h-8C1 3.2 0 4.2 0 5.2V10c0 .4.2 1 .5 1.3V18c0 1 1 2 2 2h27c1 0 2-1 2-2v-6.8c.3-.3.5-.8.5-1.3V5.2c0-1.2-1-2-2-2h-8.3c-.3-2-2-3.3-3.7-3.3h-4c-2 0-3.3 1-3.8 3.2zm8.3 0h-6.7c.4-1.2 1-1.7 2-1.7H18c1 0 2 .7 2.2 1.7h-1.7zm-3.7 9c0-.7.5-1.2 1.2-1.2s1.2.5 1.2 1.2v.5c0 .7-.5 1.3-1.2 1.3s-1.2-.6-1.2-1.3v-.5z" fill="#FFF"/>
    <path d="M64 14.2c1 0 1.8-.7 2-1.6h12c.5 0 1 0 1.5-.3V18c0 1-1 2-2 2h-27c-1 0-2-1-2-2v-5.7l1.5.3h12c.2 1 1 1.6 2 1.6zm1.3-2.2c0 .6-.6 1.2-1.3 1.2-.7 0-1.3-.6-1.3-1.2v-.6c0-.7.6-1.3 1.3-1.3.7 0 1.3.7 1.3 1.4v.6zM78 3.2h-8.2C69.5 1.4 67.8 0 66 0h-4c-2 0-3.5 1.4-3.8 3.2h-8c-1.2 0-2.2 1-2.2 2v4c0 1 1 2 2 2h11.8c0-.7.3-1.2.7-1.6 0 0 .2 0 .3-.2l.4-.2h.4c0-.2.2-.2.4-.2H64.6c0 .2.2.2.2.2h.3c0 .2.2.2.2.2s.2 0 .3.2c.4.4.7 1 .7 1.5H78c1 0 2-.8 2-2V5.4c0-1.2-1-2-2-2zM60 3.2c.2-.7 1-1.3 1.8-1.3h4c.8 0 1.6.5 1.8 1.2h-7.6z" fill="#000" fill-rule="nonzero"/>
  </g>
</svg>
