<?xml version="1.0" standalone="no"?>
<!DOCTYPE svg PUBLIC "-//W3C//DTD SVG 20010904//EN"
 "http://www.w3.org/TR/2001/REC-SVG-20010904/DTD/svg10.dtd">
<svg version="1.0" xmlns="http://www.w3.org/2000/svg"
 width="120.000000pt" height="120.000000pt" viewBox="0 0 120.000000 120.000000"
 preserveAspectRatio="xMidYMid meet">
<metadata>
Created by potrace 1.11, written by Peter Selinger 2001-2013
</metadata>
<g transform="translate(0.000000,120.000000) scale(0.100000,-0.100000)"
fill="#000000" stroke="none">
<path d="M643 1054 c-72 -15 -157 -50 -174 -70 -18 -22 -24 -17 -23 21 l2 35
-92 -5 c-50 -2 -140 -8 -201 -11 -60 -4 -120 -6 -132 -6 -20 2 -23 -3 -23 -32
0 -31 3 -34 43 -45 52 -13 94 -52 102 -95 3 -17 5 -158 3 -313 -3 -273 -4
-283 -24 -304 -13 -13 -39 -23 -66 -26 -42 -5 -44 -7 -46 -39 l-3 -34 306 0
305 0 0 30 c0 33 1 32 -83 50 -92 19 -90 11 -91 358 -1 325 -1 324 59 340 34
9 91 0 88 -14 -2 -5 -12 -34 -22 -64 -54 -152 20 -319 173 -391 52 -25 69 -28
140 -26 65 2 91 8 133 30 224 116 245 416 39 554 -26 18 -71 40 -99 49 -68 21
-235 26 -314 8z"/>
<path d="M644 295 l61 -165 248 0 247 0 0 30 c0 33 -5 36 -63 45 -60 8 -90 29
-130 89 -34 51 -39 54 -64 47 -87 -24 -230 14 -319 85 l-41 33 61 -164z"/>
</g>
</svg>
