<svg width="33" height="88" viewBox="0 0 33 88" xmlns="http://www.w3.org/2000/svg"><title>about</title><g fill="none" fill-rule="evenodd"><path d="M9.6 69.6H2.8a1.2 1.2 0 0 0-1.2 1.2v14.4a1.2 1.2 0 0 0 1.2 1.2h26.4a1.2 1.2 0 0 0 1.2-1.2V70.8a1.2 1.2 0 0 0-1.2-1.2h-6.8V68H9.6v1.6zM2.57 68h26.86c1.413 0 2.57 1.158 2.57 2.6v14.8c0 1.442-1.157 2.6-2.57 2.6H2.57C1.158 88 0 86.842 0 85.4V70.6C0 69.158 1.157 68 2.57 68zm8.101 12.297v.591c0 .578 3.464.578 3.464 2.311v1.156H3.743v-1.156c0-1.733 3.464-1.733 3.464-2.31v-.592A2.874 2.874 0 0 1 6.053 78v-2.311a2.887 2.887 0 1 1 5.773 0v2.31c0 .941-.458 1.771-1.155 2.298zm6.926-4.059c-.492 0-.891-.411-.891-.919s.4-.919.891-.919h9.408c.492 0 .891.411.891.92 0 .507-.4.918-.891.918h-9.408zm0 4c-.492 0-.891-.411-.891-.919s.4-.919.891-.919h6.568c.492 0 .891.411.891.92 0 .507-.399.918-.891.918h-6.568zm-5.514-9.994c-.488 0-.883-.288-.883-.644V68h9.583c.488 0 0 1.6 0 1.6 0 .356-.395.644-.883.644h-7.817z" fill="#FFF"/><path d="M16.033 0h6.425v2.32a1.2 1.2 0 0 1-1.2 1.2H10.825a1.2 1.2 0 0 1-1.2-1.2V0h6.408-4.804v1.6c0 .356.397.644.886.644h7.837c.489 0 .885-.288.885-.644V0s.49 0 0 0h-4.804 13.473a2.589 2.589 0 0 1 2.577 2.6v14.8c0 1.442-1.16 2.6-2.577 2.6H2.578A2.589 2.589 0 0 1 0 17.4V2.6C0 1.158 1.16 0 2.578 0h13.455zM10.7 12.297A2.872 2.872 0 0 0 11.856 10V7.689A2.89 2.89 0 0 0 8.962 4.8 2.89 2.89 0 0 0 6.07 7.689v2.31c0 .941.458 1.771 1.157 2.298v.591c0 .578-3.473.578-3.473 2.311v1.156h10.419v-1.156c0-1.733-3.473-1.733-3.473-2.31v-.592zm6.944-4.059h9.432a.907.907 0 0 0 .894-.919c0-.508-.4-.919-.894-.919h-9.432a.907.907 0 0 0-.894.92c0 .507.4.918.894.918zm0 4h6.585a.907.907 0 0 0 .893-.919c0-.508-.4-.919-.893-.919h-6.585a.907.907 0 0 0-.894.92c0 .507.4.918.894.918z" fill="#000"/></g></svg>