<svg width="32" height="88" viewBox="0 0 32 88" xmlns="http://www.w3.org/2000/svg" xmlns:xlink="http://www.w3.org/1999/xlink"><title>blog</title><defs><path d="M2.4 0h27.2A2.4 2.4 0 0 1 32 2.4v15.2a2.4 2.4 0 0 1-2.4 2.4H2.4A2.4 2.4 0 0 1 0 17.6V2.4A2.4 2.4 0 0 1 2.4 0zm.64 1.92a1.2 1.2 0 0 0-1.2 1.2v13.76a1.2 1.2 0 0 0 1.2 1.2h.72V1.92h-.72zm4.23-.177V8.39l1.806-1.773 1.77 1.773V1.743H7.27zm6.7 3.626h13.356c.458 0 .829-.358.829-.8 0-.442-.371-.8-.829-.8H13.97c-.458 0-.829.358-.829.8 0 .442.371.8.829.8zm0 3.546h10.718c.457 0 .828-.358.828-.8 0-.442-.37-.8-.828-.8H13.97c-.458 0-.829.358-.829.8 0 .442.371.8.829.8zm0 7.092h7.42c.458 0 .828-.359.828-.8 0-.442-.37-.8-.828-.8h-7.42c-.458 0-.829.358-.829.8 0 .441.371.8.829.8zm10.118 0h.495c.458 0 .828-.359.828-.8 0-.442-.37-.8-.828-.8h-.495c-.457 0-.828.358-.828.8 0 .441.371.8.828.8zM13.97 12.46h12.367c.457 0 .828-.358.828-.8 0-.442-.37-.8-.828-.8H13.97c-.458 0-.829.358-.829.8 0 .442.371.8.829.8z" id="a"/></defs><g fill="none" fill-rule="evenodd"><path d="M5.508 69.679v16.75h23.593a1.2 1.2 0 0 0 1.2-1.2v-14.35a1.2 1.2 0 0 0-1.2-1.2H10.875v6.71L9.1 74.618 7.29 76.39v-6.711H5.508zm-1.604 0H2.899a1.2 1.2 0 0 0-1.2 1.2v14.35a1.2 1.2 0 0 0 1.2 1.2h1.005V69.68zM2.4 68h27.2a2.4 2.4 0 0 1 2.4 2.4v15.2a2.4 2.4 0 0 1-2.4 2.4H2.4A2.4 2.4 0 0 1 0 85.6V70.4A2.4 2.4 0 0 1 2.4 68zm11.608 5.369c-.46 0-.831-.358-.831-.8 0-.442.372-.8.83-.8h13.394c.458 0 .83.358.83.8 0 .442-.372.8-.83.8H14.008zm0 3.546c-.46 0-.831-.358-.831-.8 0-.442.372-.8.83-.8h10.748c.459 0 .83.358.83.8 0 .442-.371.8-.83.8H14.008zm0 7.092c-.46 0-.831-.359-.831-.8 0-.442.372-.8.83-.8h7.441c.459 0 .83.358.83.8 0 .441-.371.8-.83.8h-7.44zm10.146 0c-.459 0-.83-.359-.83-.8 0-.442.371-.8.83-.8h.496c.458 0 .83.358.83.8 0 .441-.372.8-.83.8h-.496zM14.008 80.46c-.46 0-.831-.358-.831-.8 0-.442.372-.8.83-.8h12.401c.46 0 .83.358.83.8 0 .442-.37.8-.83.8h-12.4z" fill="#FFF"/><use fill="#000" xlink:href="#a"/></g></svg>