<svg width="32" height="88" viewBox="0 0 32 88" xmlns="http://www.w3.org/2000/svg"><title>work</title><g fill="none" fill-rule="evenodd"><path d="M2.548 86.486a.513.513 0 0 1-.509-.504v-5.393c.733.447 1.602.64 2.96.64h8.908a2.056 2.056 0 0 1-.02-.282v-.95c0-.096.007-.19.02-.282H4.999c-1.562 0-2.113-.228-2.805-.943-.005-.005-.422-.449-.606-.634a.487.487 0 0 1-.063-.228V73.25c0-.273.272-.504.594-.504H29.88c.322 0 .594.231.594.505v4.659c0 .125-.045.24-.13.335l-.354.396a4.29 4.29 0 0 1-.319.29c-.552.45-1.242.72-2.285.784l-6.412-.001h-2.88c.012.092.018.186.018.281v.951c0 .095-.006.19-.019.282h9.34c1.04-.063 1.852-.293 2.527-.668v5.42a.513.513 0 0 1-.508.505H2.548zm7.676-15.253H2.12C.95 71.233 0 72.138 0 73.251v4.659c0 .495.183.971.514 1.34v6.732c0 1.113.912 2.018 2.034 2.018h26.905a2.028 2.028 0 0 0 2.034-2.018V79.25c.33-.369.513-.845.513-1.34v-4.658c0-1.113-.95-2.019-2.119-2.019h-8.16c-.33-1.91-1.902-3.233-3.75-3.233h-4.068c-1.923 0-3.175 1.144-3.679 3.233zm8.256-.004h-6.678c.369-1.192 1.05-1.715 2.101-1.715h4.068c1.018 0 1.899.673 2.188 1.715h-1.68zm-3.708 8.966c0-.673.55-1.218 1.229-1.218.678 0 1.228.545 1.228 1.218v.553c0 .673-.55 1.219-1.228 1.219a1.224 1.224 0 0 1-1.23-1.219v-.553z" fill="#FFF"/><path d="M16.001 14.205c.998 0 1.834-.663 2.111-1.564h11.855c.544 0 1.058-.125 1.52-.343v5.684c0 1.11-.915 2.018-2.034 2.018H2.548a2.032 2.032 0 0 1-2.034-2.018v-5.685c.462.218.976.344 1.521.344h11.854A2.212 2.212 0 0 0 16 14.205zm1.252-2.251c0 .686-.56 1.242-1.252 1.242a1.248 1.248 0 0 1-1.253-1.242v-.564c0-.686.561-1.243 1.253-1.243.691 0 1.252.557 1.252 1.243v.564zm12.628-8.72h-8.108A3.864 3.864 0 0 0 17.956 0h-3.913a3.865 3.865 0 0 0-3.817 3.233H2.119C.953 3.233 0 4.141 0 5.251V9.11c0 1.114.91 2.018 2.034 2.018h11.758a2.184 2.184 0 0 1 .996-1.733c.035-.024.076-.04.113-.061.083-.047.164-.096.253-.133.07-.028.145-.045.218-.067.063-.018.123-.043.189-.056a2.218 2.218 0 0 1 .878 0c.065.013.125.038.189.056.073.022.147.039.218.068.089.036.17.085.252.132.037.021.078.037.114.061.1.065.191.14.28.221.012.012.028.02.04.033.397.377.647.899.676 1.48h11.758A2.026 2.026 0 0 0 32 9.11V5.252c0-1.11-.953-2.019-2.119-2.019zm-17.696 0c.26-.778.99-1.345 1.86-1.345h3.912c.869 0 1.6.567 1.859 1.344h-7.631z" fill="#000" fill-rule="nonzero"/></g></svg>